<svg xmlns="http://www.w3.org/2000/svg" width="360" height="740" viewBox="0 0 360 740">
<defs>
  <linearGradient id="bg" x1="0" y1="0" x2="1" y2="1">
    <stop offset="0" stop-color="#1b1234"/><stop offset="0.55" stop-color="#3a1850"/><stop offset="1" stop-color="#6b2440"/>
  </linearGradient>
  <linearGradient id="brand" x1="0" y1="0" x2="1" y2="1">
    <stop offset="0" stop-color="#FFD23F"/><stop offset="0.5" stop-color="#FF8A3D"/><stop offset="1" stop-color="#FF4D8D"/>
  </linearGradient>
  <linearGradient id="petal" x1="0" y1="0" x2="1" y2="1">
    <stop offset="0" stop-color="#FFE07A"/><stop offset="0.6" stop-color="#FFB627"/><stop offset="1" stop-color="#FF8A3D"/>
  </linearGradient>
  <radialGradient id="glowY" cx="0.2" cy="0.15" r="0.6"><stop offset="0" stop-color="#FFB627" stop-opacity="0.45"/><stop offset="1" stop-color="#FFB627" stop-opacity="0"/></radialGradient>
  <radialGradient id="glowP" cx="0.85" cy="0.9" r="0.6"><stop offset="0" stop-color="#8B5CF6" stop-opacity="0.5"/><stop offset="1" stop-color="#8B5CF6" stop-opacity="0"/></radialGradient>
  <linearGradient id="felt" x1="0" y1="0" x2="0" y2="1"><stop offset="0" stop-color="#16734f"/><stop offset="1" stop-color="#0c4a33"/></linearGradient>
  <linearGradient id="wood" x1="0" y1="0" x2="1" y2="1"><stop offset="0" stop-color="#f3d9a4"/><stop offset="1" stop-color="#e2bb77"/></linearGradient>
  <linearGradient id="screen" x1="0" y1="0" x2="0" y2="1"><stop offset="0" stop-color="#241744"/><stop offset="1" stop-color="#120b24"/></linearGradient>
</defs><rect width="360" height="740" rx="44" fill="url(#screen)"/><svg x="0" y="0" width="360" height="740"><g opacity="1" transform="translate(18 48) scale(0.6875)"><ellipse cx="32" cy="13" rx="6" ry="12" fill="url(#petal)" transform="rotate(0 32 32)"/><ellipse cx="32" cy="13" rx="6" ry="12" fill="url(#petal)" transform="rotate(30 32 32)"/><ellipse cx="32" cy="13" rx="6" ry="12" fill="url(#petal)" transform="rotate(60 32 32)"/><ellipse cx="32" cy="13" rx="6" ry="12" fill="url(#petal)" transform="rotate(90 32 32)"/><ellipse cx="32" cy="13" rx="6" ry="12" fill="url(#petal)" transform="rotate(120 32 32)"/><ellipse cx="32" cy="13" rx="6" ry="12" fill="url(#petal)" transform="rotate(150 32 32)"/><ellipse cx="32" cy="13" rx="6" ry="12" fill="url(#petal)" transform="rotate(180 32 32)"/><ellipse cx="32" cy="13" rx="6" ry="12" fill="url(#petal)" transform="rotate(210 32 32)"/><ellipse cx="32" cy="13" rx="6" ry="12" fill="url(#petal)" transform="rotate(240 32 32)"/><ellipse cx="32" cy="13" rx="6" ry="12" fill="url(#petal)" transform="rotate(270 32 32)"/><ellipse cx="32" cy="13" rx="6" ry="12" fill="url(#petal)" transform="rotate(300 32 32)"/><ellipse cx="32" cy="13" rx="6" ry="12" fill="url(#petal)" transform="rotate(330 32 32)"/><circle cx="32" cy="32" r="11" fill="#4a220d"/><circle cx="28.5" cy="28.5" r="2.4" fill="#FF4D8D"/></g><text x="70" y="77" font-family="Arial" font-weight="800" font-size="18" fill="#fff">Sunflower</text>
    <rect x="274" y="58" width="72" height="28" rx="14" fill="url(#brand)"/><text x="310" y="77" text-anchor="middle" font-family="Arial" font-weight="700" font-size="13" fill="#1b1234">12,450</text>
    <text x="16" y="130" font-family="Arial" font-weight="700" font-size="18" fill="#ffffffcc">Choose a game</text>
    <rect x="16" y="150" width="156" height="140.4" rx="18" fill="#7c3aed"/><text x="30" y="274.4" font-family="Arial, sans-serif" font-weight="700" font-size="21.840000000000003" fill="#fff">Rummy</text><g opacity="0.9" transform="translate(124 162) scale(0.5625)"><ellipse cx="32" cy="13" rx="6" ry="12" fill="url(#petal)" transform="rotate(0 32 32)"/><ellipse cx="32" cy="13" rx="6" ry="12" fill="url(#petal)" transform="rotate(30 32 32)"/><ellipse cx="32" cy="13" rx="6" ry="12" fill="url(#petal)" transform="rotate(60 32 32)"/><ellipse cx="32" cy="13" rx="6" ry="12" fill="url(#petal)" transform="rotate(90 32 32)"/><ellipse cx="32" cy="13" rx="6" ry="12" fill="url(#petal)" transform="rotate(120 32 32)"/><ellipse cx="32" cy="13" rx="6" ry="12" fill="url(#petal)" transform="rotate(150 32 32)"/><ellipse cx="32" cy="13" rx="6" ry="12" fill="url(#petal)" transform="rotate(180 32 32)"/><ellipse cx="32" cy="13" rx="6" ry="12" fill="url(#petal)" transform="rotate(210 32 32)"/><ellipse cx="32" cy="13" rx="6" ry="12" fill="url(#petal)" transform="rotate(240 32 32)"/><ellipse cx="32" cy="13" rx="6" ry="12" fill="url(#petal)" transform="rotate(270 32 32)"/><ellipse cx="32" cy="13" rx="6" ry="12" fill="url(#petal)" transform="rotate(300 32 32)"/><ellipse cx="32" cy="13" rx="6" ry="12" fill="url(#petal)" transform="rotate(330 32 32)"/><circle cx="32" cy="32" r="11" fill="#4a220d"/><circle cx="28.5" cy="28.5" r="2.4" fill="#FF4D8D"/></g><rect x="188" y="150" width="156" height="140.4" rx="18" fill="#e0245e"/><text x="202" y="274.4" font-family="Arial, sans-serif" font-weight="700" font-size="21.840000000000003" fill="#fff">Ludo</text><g opacity="0.9" transform="translate(296 162) scale(0.5625)"><ellipse cx="32" cy="13" rx="6" ry="12" fill="url(#petal)" transform="rotate(0 32 32)"/><ellipse cx="32" cy="13" rx="6" ry="12" fill="url(#petal)" transform="rotate(30 32 32)"/><ellipse cx="32" cy="13" rx="6" ry="12" fill="url(#petal)" transform="rotate(60 32 32)"/><ellipse cx="32" cy="13" rx="6" ry="12" fill="url(#petal)" transform="rotate(90 32 32)"/><ellipse cx="32" cy="13" rx="6" ry="12" fill="url(#petal)" transform="rotate(120 32 32)"/><ellipse cx="32" cy="13" rx="6" ry="12" fill="url(#petal)" transform="rotate(150 32 32)"/><ellipse cx="32" cy="13" rx="6" ry="12" fill="url(#petal)" transform="rotate(180 32 32)"/><ellipse cx="32" cy="13" rx="6" ry="12" fill="url(#petal)" transform="rotate(210 32 32)"/><ellipse cx="32" cy="13" rx="6" ry="12" fill="url(#petal)" transform="rotate(240 32 32)"/><ellipse cx="32" cy="13" rx="6" ry="12" fill="url(#petal)" transform="rotate(270 32 32)"/><ellipse cx="32" cy="13" rx="6" ry="12" fill="url(#petal)" transform="rotate(300 32 32)"/><ellipse cx="32" cy="13" rx="6" ry="12" fill="url(#petal)" transform="rotate(330 32 32)"/><circle cx="32" cy="32" r="11" fill="#4a220d"/><circle cx="28.5" cy="28.5" r="2.4" fill="#FF4D8D"/></g><rect x="16" y="306.4" width="156" height="140.4" rx="18" fill="#ea580c"/><text x="30" y="430.79999999999995" font-family="Arial, sans-serif" font-weight="700" font-size="21.840000000000003" fill="#fff">Teen Patti</text><g opacity="0.9" transform="translate(124 318.4) scale(0.5625)"><ellipse cx="32" cy="13" rx="6" ry="12" fill="url(#petal)" transform="rotate(0 32 32)"/><ellipse cx="32" cy="13" rx="6" ry="12" fill="url(#petal)" transform="rotate(30 32 32)"/><ellipse cx="32" cy="13" rx="6" ry="12" fill="url(#petal)" transform="rotate(60 32 32)"/><ellipse cx="32" cy="13" rx="6" ry="12" fill="url(#petal)" transform="rotate(90 32 32)"/><ellipse cx="32" cy="13" rx="6" ry="12" fill="url(#petal)" transform="rotate(120 32 32)"/><ellipse cx="32" cy="13" rx="6" ry="12" fill="url(#petal)" transform="rotate(150 32 32)"/><ellipse cx="32" cy="13" rx="6" ry="12" fill="url(#petal)" transform="rotate(180 32 32)"/><ellipse cx="32" cy="13" rx="6" ry="12" fill="url(#petal)" transform="rotate(210 32 32)"/><ellipse cx="32" cy="13" rx="6" ry="12" fill="url(#petal)" transform="rotate(240 32 32)"/><ellipse cx="32" cy="13" rx="6" ry="12" fill="url(#petal)" transform="rotate(270 32 32)"/><ellipse cx="32" cy="13" rx="6" ry="12" fill="url(#petal)" transform="rotate(300 32 32)"/><ellipse cx="32" cy="13" rx="6" ry="12" fill="url(#petal)" transform="rotate(330 32 32)"/><circle cx="32" cy="32" r="11" fill="#4a220d"/><circle cx="28.5" cy="28.5" r="2.4" fill="#FF4D8D"/></g><rect x="188" y="306.4" width="156" height="140.4" rx="18" fill="#2563eb"/><text x="202" y="430.79999999999995" font-family="Arial, sans-serif" font-weight="700" font-size="21.840000000000003" fill="#fff">Callbreak</text><g opacity="0.9" transform="translate(296 318.4) scale(0.5625)"><ellipse cx="32" cy="13" rx="6" ry="12" fill="url(#petal)" transform="rotate(0 32 32)"/><ellipse cx="32" cy="13" rx="6" ry="12" fill="url(#petal)" transform="rotate(30 32 32)"/><ellipse cx="32" cy="13" rx="6" ry="12" fill="url(#petal)" transform="rotate(60 32 32)"/><ellipse cx="32" cy="13" rx="6" ry="12" fill="url(#petal)" transform="rotate(90 32 32)"/><ellipse cx="32" cy="13" rx="6" ry="12" fill="url(#petal)" transform="rotate(120 32 32)"/><ellipse cx="32" cy="13" rx="6" ry="12" fill="url(#petal)" transform="rotate(150 32 32)"/><ellipse cx="32" cy="13" rx="6" ry="12" fill="url(#petal)" transform="rotate(180 32 32)"/><ellipse cx="32" cy="13" rx="6" ry="12" fill="url(#petal)" transform="rotate(210 32 32)"/><ellipse cx="32" cy="13" rx="6" ry="12" fill="url(#petal)" transform="rotate(240 32 32)"/><ellipse cx="32" cy="13" rx="6" ry="12" fill="url(#petal)" transform="rotate(270 32 32)"/><ellipse cx="32" cy="13" rx="6" ry="12" fill="url(#petal)" transform="rotate(300 32 32)"/><ellipse cx="32" cy="13" rx="6" ry="12" fill="url(#petal)" transform="rotate(330 32 32)"/><circle cx="32" cy="32" r="11" fill="#4a220d"/><circle cx="28.5" cy="28.5" r="2.4" fill="#FF4D8D"/></g><rect x="16" y="462.8" width="156" height="140.4" rx="18" fill="#0f766e"/><text x="30" y="587.2" font-family="Arial, sans-serif" font-weight="700" font-size="21.840000000000003" fill="#fff">Carrom</text><g opacity="0.9" transform="translate(124 474.8) scale(0.5625)"><ellipse cx="32" cy="13" rx="6" ry="12" fill="url(#petal)" transform="rotate(0 32 32)"/><ellipse cx="32" cy="13" rx="6" ry="12" fill="url(#petal)" transform="rotate(30 32 32)"/><ellipse cx="32" cy="13" rx="6" ry="12" fill="url(#petal)" transform="rotate(60 32 32)"/><ellipse cx="32" cy="13" rx="6" ry="12" fill="url(#petal)" transform="rotate(90 32 32)"/><ellipse cx="32" cy="13" rx="6" ry="12" fill="url(#petal)" transform="rotate(120 32 32)"/><ellipse cx="32" cy="13" rx="6" ry="12" fill="url(#petal)" transform="rotate(150 32 32)"/><ellipse cx="32" cy="13" rx="6" ry="12" fill="url(#petal)" transform="rotate(180 32 32)"/><ellipse cx="32" cy="13" rx="6" ry="12" fill="url(#petal)" transform="rotate(210 32 32)"/><ellipse cx="32" cy="13" rx="6" ry="12" fill="url(#petal)" transform="rotate(240 32 32)"/><ellipse cx="32" cy="13" rx="6" ry="12" fill="url(#petal)" transform="rotate(270 32 32)"/><ellipse cx="32" cy="13" rx="6" ry="12" fill="url(#petal)" transform="rotate(300 32 32)"/><ellipse cx="32" cy="13" rx="6" ry="12" fill="url(#petal)" transform="rotate(330 32 32)"/><circle cx="32" cy="32" r="11" fill="#4a220d"/><circle cx="28.5" cy="28.5" r="2.4" fill="#FF4D8D"/></g><rect x="188" y="462.8" width="156" height="140.4" rx="18" fill="#9d174d"/><text x="202" y="587.2" font-family="Arial, sans-serif" font-weight="700" font-size="21.840000000000003" fill="#fff">Private Room</text><g opacity="0.9" transform="translate(296 474.8) scale(0.5625)"><ellipse cx="32" cy="13" rx="6" ry="12" fill="url(#petal)" transform="rotate(0 32 32)"/><ellipse cx="32" cy="13" rx="6" ry="12" fill="url(#petal)" transform="rotate(30 32 32)"/><ellipse cx="32" cy="13" rx="6" ry="12" fill="url(#petal)" transform="rotate(60 32 32)"/><ellipse cx="32" cy="13" rx="6" ry="12" fill="url(#petal)" transform="rotate(90 32 32)"/><ellipse cx="32" cy="13" rx="6" ry="12" fill="url(#petal)" transform="rotate(120 32 32)"/><ellipse cx="32" cy="13" rx="6" ry="12" fill="url(#petal)" transform="rotate(150 32 32)"/><ellipse cx="32" cy="13" rx="6" ry="12" fill="url(#petal)" transform="rotate(180 32 32)"/><ellipse cx="32" cy="13" rx="6" ry="12" fill="url(#petal)" transform="rotate(210 32 32)"/><ellipse cx="32" cy="13" rx="6" ry="12" fill="url(#petal)" transform="rotate(240 32 32)"/><ellipse cx="32" cy="13" rx="6" ry="12" fill="url(#petal)" transform="rotate(270 32 32)"/><ellipse cx="32" cy="13" rx="6" ry="12" fill="url(#petal)" transform="rotate(300 32 32)"/><ellipse cx="32" cy="13" rx="6" ry="12" fill="url(#petal)" transform="rotate(330 32 32)"/><circle cx="32" cy="32" r="11" fill="#4a220d"/><circle cx="28.5" cy="28.5" r="2.4" fill="#FF4D8D"/></g>
    <rect x="16" y="664" width="328" height="56" rx="28" fill="url(#brand)"/><text x="180" y="699" text-anchor="middle" font-family="Arial" font-weight="800" font-size="20" fill="#1b1234">Quick Play</text></svg></svg>
