<svg xmlns="http://www.w3.org/2000/svg" width="900" height="600" viewBox="0 0 900 600">
<defs>
  <linearGradient id="bg" x1="0" y1="0" x2="1" y2="1">
    <stop offset="0" stop-color="#1b1234"/><stop offset="0.55" stop-color="#3a1850"/><stop offset="1" stop-color="#6b2440"/>
  </linearGradient>
  <linearGradient id="brand" x1="0" y1="0" x2="1" y2="1">
    <stop offset="0" stop-color="#FFD23F"/><stop offset="0.5" stop-color="#FF8A3D"/><stop offset="1" stop-color="#FF4D8D"/>
  </linearGradient>
  <linearGradient id="petal" x1="0" y1="0" x2="1" y2="1">
    <stop offset="0" stop-color="#FFE07A"/><stop offset="0.6" stop-color="#FFB627"/><stop offset="1" stop-color="#FF8A3D"/>
  </linearGradient>
  <radialGradient id="glowY" cx="0.2" cy="0.15" r="0.6"><stop offset="0" stop-color="#FFB627" stop-opacity="0.45"/><stop offset="1" stop-color="#FFB627" stop-opacity="0"/></radialGradient>
  <radialGradient id="glowP" cx="0.85" cy="0.9" r="0.6"><stop offset="0" stop-color="#8B5CF6" stop-opacity="0.5"/><stop offset="1" stop-color="#8B5CF6" stop-opacity="0"/></radialGradient>
  <linearGradient id="felt" x1="0" y1="0" x2="0" y2="1"><stop offset="0" stop-color="#16734f"/><stop offset="1" stop-color="#0c4a33"/></linearGradient>
  <linearGradient id="wood" x1="0" y1="0" x2="1" y2="1"><stop offset="0" stop-color="#f3d9a4"/><stop offset="1" stop-color="#e2bb77"/></linearGradient>
  <linearGradient id="screen" x1="0" y1="0" x2="0" y2="1"><stop offset="0" stop-color="#241744"/><stop offset="1" stop-color="#120b24"/></linearGradient>
</defs><rect width="900" height="600" fill="url(#bg)"/><rect width="900" height="600" fill="url(#glowY)"/><rect width="900" height="600" fill="url(#glowP)"/><g opacity="0.18" transform="translate(740 450) scale(2.8125)"><ellipse cx="32" cy="13" rx="6" ry="12" fill="url(#petal)" transform="rotate(0 32 32)"/><ellipse cx="32" cy="13" rx="6" ry="12" fill="url(#petal)" transform="rotate(30 32 32)"/><ellipse cx="32" cy="13" rx="6" ry="12" fill="url(#petal)" transform="rotate(60 32 32)"/><ellipse cx="32" cy="13" rx="6" ry="12" fill="url(#petal)" transform="rotate(90 32 32)"/><ellipse cx="32" cy="13" rx="6" ry="12" fill="url(#petal)" transform="rotate(120 32 32)"/><ellipse cx="32" cy="13" rx="6" ry="12" fill="url(#petal)" transform="rotate(150 32 32)"/><ellipse cx="32" cy="13" rx="6" ry="12" fill="url(#petal)" transform="rotate(180 32 32)"/><ellipse cx="32" cy="13" rx="6" ry="12" fill="url(#petal)" transform="rotate(210 32 32)"/><ellipse cx="32" cy="13" rx="6" ry="12" fill="url(#petal)" transform="rotate(240 32 32)"/><ellipse cx="32" cy="13" rx="6" ry="12" fill="url(#petal)" transform="rotate(270 32 32)"/><ellipse cx="32" cy="13" rx="6" ry="12" fill="url(#petal)" transform="rotate(300 32 32)"/><ellipse cx="32" cy="13" rx="6" ry="12" fill="url(#petal)" transform="rotate(330 32 32)"/><circle cx="32" cy="32" r="11" fill="#4a220d"/><circle cx="28.5" cy="28.5" r="2.4" fill="#FF4D8D"/></g><g opacity="0.15" transform="translate(0 0) scale(1.875)"><ellipse cx="32" cy="13" rx="6" ry="12" fill="url(#petal)" transform="rotate(0 32 32)"/><ellipse cx="32" cy="13" rx="6" ry="12" fill="url(#petal)" transform="rotate(30 32 32)"/><ellipse cx="32" cy="13" rx="6" ry="12" fill="url(#petal)" transform="rotate(60 32 32)"/><ellipse cx="32" cy="13" rx="6" ry="12" fill="url(#petal)" transform="rotate(90 32 32)"/><ellipse cx="32" cy="13" rx="6" ry="12" fill="url(#petal)" transform="rotate(120 32 32)"/><ellipse cx="32" cy="13" rx="6" ry="12" fill="url(#petal)" transform="rotate(150 32 32)"/><ellipse cx="32" cy="13" rx="6" ry="12" fill="url(#petal)" transform="rotate(180 32 32)"/><ellipse cx="32" cy="13" rx="6" ry="12" fill="url(#petal)" transform="rotate(210 32 32)"/><ellipse cx="32" cy="13" rx="6" ry="12" fill="url(#petal)" transform="rotate(240 32 32)"/><ellipse cx="32" cy="13" rx="6" ry="12" fill="url(#petal)" transform="rotate(270 32 32)"/><ellipse cx="32" cy="13" rx="6" ry="12" fill="url(#petal)" transform="rotate(300 32 32)"/><ellipse cx="32" cy="13" rx="6" ry="12" fill="url(#petal)" transform="rotate(330 32 32)"/><circle cx="32" cy="32" r="11" fill="#4a220d"/><circle cx="28.5" cy="28.5" r="2.4" fill="#FF4D8D"/></g><g transform="rotate(0 450 228)">
    <rect x="390" y="60" width="120" height="168" rx="12" fill="#fff" stroke="#e8e2f5" stroke-width="2"/>
    <text x="404.4" y="96" font-family="Arial, sans-serif" font-weight="700" font-size="28.799999999999997" fill="#1b1234">A</text>
    <text x="404.4" y="122.4" font-family="Arial, sans-serif" font-size="24" fill="#1b1234">♠</text>
    <text x="450" y="164.16" text-anchor="middle" font-family="Arial, sans-serif" font-size="66" fill="#1b1234">♠</text>
  </g><g transform="rotate(-8 260 408)">
    <rect x="200" y="240" width="120" height="168" rx="12" fill="#fff" stroke="#e8e2f5" stroke-width="2"/>
    <text x="214.4" y="276" font-family="Arial, sans-serif" font-weight="700" font-size="28.799999999999997" fill="#e0245e">K</text>
    <text x="214.4" y="302.4" font-family="Arial, sans-serif" font-size="24" fill="#e0245e">♥</text>
    <text x="260" y="344.15999999999997" text-anchor="middle" font-family="Arial, sans-serif" font-size="66" fill="#e0245e">♥</text>
  </g><g transform="rotate(8 640 408)">
    <rect x="580" y="240" width="120" height="168" rx="12" fill="#fff" stroke="#e8e2f5" stroke-width="2"/>
    <text x="594.4" y="276" font-family="Arial, sans-serif" font-weight="700" font-size="28.799999999999997" fill="#e0245e">Q</text>
    <text x="594.4" y="302.4" font-family="Arial, sans-serif" font-size="24" fill="#e0245e">♦</text>
    <text x="640" y="344.15999999999997" text-anchor="middle" font-family="Arial, sans-serif" font-size="66" fill="#e0245e">♦</text>
  </g><g transform="rotate(0 450 538)">
    <rect x="390" y="370" width="120" height="168" rx="12" fill="#fff" stroke="#e8e2f5" stroke-width="2"/>
    <text x="404.4" y="406" font-family="Arial, sans-serif" font-weight="700" font-size="28.799999999999997" fill="#1b1234">2</text>
    <text x="404.4" y="432.4" font-family="Arial, sans-serif" font-size="24" fill="#1b1234">♠</text>
    <text x="450" y="474.15999999999997" text-anchor="middle" font-family="Arial, sans-serif" font-size="66" fill="#1b1234">♠</text>
  </g>
     <rect x="40" y="40" width="150" height="40" rx="20" fill="#fff" fill-opacity="0.08" stroke="#fff" stroke-opacity="0.15"/><text x="115" y="66" text-anchor="middle" font-family="Arial, sans-serif" font-size="16" font-weight="600" fill="#FFE07A">Call: 4</text><rect x="710" y="40" width="150" height="40" rx="20" fill="#fff" fill-opacity="0.08" stroke="#fff" stroke-opacity="0.15"/><text x="785" y="66" text-anchor="middle" font-family="Arial, sans-serif" font-size="16" font-weight="600" fill="#FFE07A">Tricks: 3</text></svg>
