<svg xmlns="http://www.w3.org/2000/svg" width="900" height="600" viewBox="0 0 900 600">
<defs>
  <linearGradient id="bg" x1="0" y1="0" x2="1" y2="1">
    <stop offset="0" stop-color="#1b1234"/><stop offset="0.55" stop-color="#3a1850"/><stop offset="1" stop-color="#6b2440"/>
  </linearGradient>
  <linearGradient id="brand" x1="0" y1="0" x2="1" y2="1">
    <stop offset="0" stop-color="#FFD23F"/><stop offset="0.5" stop-color="#FF8A3D"/><stop offset="1" stop-color="#FF4D8D"/>
  </linearGradient>
  <linearGradient id="petal" x1="0" y1="0" x2="1" y2="1">
    <stop offset="0" stop-color="#FFE07A"/><stop offset="0.6" stop-color="#FFB627"/><stop offset="1" stop-color="#FF8A3D"/>
  </linearGradient>
  <radialGradient id="glowY" cx="0.2" cy="0.15" r="0.6"><stop offset="0" stop-color="#FFB627" stop-opacity="0.45"/><stop offset="1" stop-color="#FFB627" stop-opacity="0"/></radialGradient>
  <radialGradient id="glowP" cx="0.85" cy="0.9" r="0.6"><stop offset="0" stop-color="#8B5CF6" stop-opacity="0.5"/><stop offset="1" stop-color="#8B5CF6" stop-opacity="0"/></radialGradient>
  <linearGradient id="felt" x1="0" y1="0" x2="0" y2="1"><stop offset="0" stop-color="#16734f"/><stop offset="1" stop-color="#0c4a33"/></linearGradient>
  <linearGradient id="wood" x1="0" y1="0" x2="1" y2="1"><stop offset="0" stop-color="#f3d9a4"/><stop offset="1" stop-color="#e2bb77"/></linearGradient>
  <linearGradient id="screen" x1="0" y1="0" x2="0" y2="1"><stop offset="0" stop-color="#241744"/><stop offset="1" stop-color="#120b24"/></linearGradient>
</defs><rect width="900" height="600" fill="url(#bg)"/><rect width="900" height="600" fill="url(#glowY)"/><rect width="900" height="600" fill="url(#glowP)"/><g opacity="0.18" transform="translate(740 450) scale(2.8125)"><ellipse cx="32" cy="13" rx="6" ry="12" fill="url(#petal)" transform="rotate(0 32 32)"/><ellipse cx="32" cy="13" rx="6" ry="12" fill="url(#petal)" transform="rotate(30 32 32)"/><ellipse cx="32" cy="13" rx="6" ry="12" fill="url(#petal)" transform="rotate(60 32 32)"/><ellipse cx="32" cy="13" rx="6" ry="12" fill="url(#petal)" transform="rotate(90 32 32)"/><ellipse cx="32" cy="13" rx="6" ry="12" fill="url(#petal)" transform="rotate(120 32 32)"/><ellipse cx="32" cy="13" rx="6" ry="12" fill="url(#petal)" transform="rotate(150 32 32)"/><ellipse cx="32" cy="13" rx="6" ry="12" fill="url(#petal)" transform="rotate(180 32 32)"/><ellipse cx="32" cy="13" rx="6" ry="12" fill="url(#petal)" transform="rotate(210 32 32)"/><ellipse cx="32" cy="13" rx="6" ry="12" fill="url(#petal)" transform="rotate(240 32 32)"/><ellipse cx="32" cy="13" rx="6" ry="12" fill="url(#petal)" transform="rotate(270 32 32)"/><ellipse cx="32" cy="13" rx="6" ry="12" fill="url(#petal)" transform="rotate(300 32 32)"/><ellipse cx="32" cy="13" rx="6" ry="12" fill="url(#petal)" transform="rotate(330 32 32)"/><circle cx="32" cy="32" r="11" fill="#4a220d"/><circle cx="28.5" cy="28.5" r="2.4" fill="#FF4D8D"/></g><g opacity="0.15" transform="translate(0 0) scale(1.875)"><ellipse cx="32" cy="13" rx="6" ry="12" fill="url(#petal)" transform="rotate(0 32 32)"/><ellipse cx="32" cy="13" rx="6" ry="12" fill="url(#petal)" transform="rotate(30 32 32)"/><ellipse cx="32" cy="13" rx="6" ry="12" fill="url(#petal)" transform="rotate(60 32 32)"/><ellipse cx="32" cy="13" rx="6" ry="12" fill="url(#petal)" transform="rotate(90 32 32)"/><ellipse cx="32" cy="13" rx="6" ry="12" fill="url(#petal)" transform="rotate(120 32 32)"/><ellipse cx="32" cy="13" rx="6" ry="12" fill="url(#petal)" transform="rotate(150 32 32)"/><ellipse cx="32" cy="13" rx="6" ry="12" fill="url(#petal)" transform="rotate(180 32 32)"/><ellipse cx="32" cy="13" rx="6" ry="12" fill="url(#petal)" transform="rotate(210 32 32)"/><ellipse cx="32" cy="13" rx="6" ry="12" fill="url(#petal)" transform="rotate(240 32 32)"/><ellipse cx="32" cy="13" rx="6" ry="12" fill="url(#petal)" transform="rotate(270 32 32)"/><ellipse cx="32" cy="13" rx="6" ry="12" fill="url(#petal)" transform="rotate(300 32 32)"/><ellipse cx="32" cy="13" rx="6" ry="12" fill="url(#petal)" transform="rotate(330 32 32)"/><circle cx="32" cy="32" r="11" fill="#4a220d"/><circle cx="28.5" cy="28.5" r="2.4" fill="#FF4D8D"/></g><ellipse cx="450" cy="360" rx="360" ry="170" fill="url(#felt)" stroke="#5a2d14" stroke-width="12"/><g transform="rotate(-14 315 287)"><rect x="260" y="210" width="110" height="154" rx="11" fill="url(#brand)" stroke="#fff" stroke-width="3"/><g opacity="0.9" transform="translate(282 254) scale(1.03125)"><ellipse cx="32" cy="13" rx="6" ry="12" fill="url(#petal)" transform="rotate(0 32 32)"/><ellipse cx="32" cy="13" rx="6" ry="12" fill="url(#petal)" transform="rotate(30 32 32)"/><ellipse cx="32" cy="13" rx="6" ry="12" fill="url(#petal)" transform="rotate(60 32 32)"/><ellipse cx="32" cy="13" rx="6" ry="12" fill="url(#petal)" transform="rotate(90 32 32)"/><ellipse cx="32" cy="13" rx="6" ry="12" fill="url(#petal)" transform="rotate(120 32 32)"/><ellipse cx="32" cy="13" rx="6" ry="12" fill="url(#petal)" transform="rotate(150 32 32)"/><ellipse cx="32" cy="13" rx="6" ry="12" fill="url(#petal)" transform="rotate(180 32 32)"/><ellipse cx="32" cy="13" rx="6" ry="12" fill="url(#petal)" transform="rotate(210 32 32)"/><ellipse cx="32" cy="13" rx="6" ry="12" fill="url(#petal)" transform="rotate(240 32 32)"/><ellipse cx="32" cy="13" rx="6" ry="12" fill="url(#petal)" transform="rotate(270 32 32)"/><ellipse cx="32" cy="13" rx="6" ry="12" fill="url(#petal)" transform="rotate(300 32 32)"/><ellipse cx="32" cy="13" rx="6" ry="12" fill="url(#petal)" transform="rotate(330 32 32)"/><circle cx="32" cy="32" r="11" fill="#4a220d"/><circle cx="28.5" cy="28.5" r="2.4" fill="#FF4D8D"/></g></g><g transform="rotate(0 450 272)"><rect x="395" y="195" width="110" height="154" rx="11" fill="url(#brand)" stroke="#fff" stroke-width="3"/><g opacity="0.9" transform="translate(417 239) scale(1.03125)"><ellipse cx="32" cy="13" rx="6" ry="12" fill="url(#petal)" transform="rotate(0 32 32)"/><ellipse cx="32" cy="13" rx="6" ry="12" fill="url(#petal)" transform="rotate(30 32 32)"/><ellipse cx="32" cy="13" rx="6" ry="12" fill="url(#petal)" transform="rotate(60 32 32)"/><ellipse cx="32" cy="13" rx="6" ry="12" fill="url(#petal)" transform="rotate(90 32 32)"/><ellipse cx="32" cy="13" rx="6" ry="12" fill="url(#petal)" transform="rotate(120 32 32)"/><ellipse cx="32" cy="13" rx="6" ry="12" fill="url(#petal)" transform="rotate(150 32 32)"/><ellipse cx="32" cy="13" rx="6" ry="12" fill="url(#petal)" transform="rotate(180 32 32)"/><ellipse cx="32" cy="13" rx="6" ry="12" fill="url(#petal)" transform="rotate(210 32 32)"/><ellipse cx="32" cy="13" rx="6" ry="12" fill="url(#petal)" transform="rotate(240 32 32)"/><ellipse cx="32" cy="13" rx="6" ry="12" fill="url(#petal)" transform="rotate(270 32 32)"/><ellipse cx="32" cy="13" rx="6" ry="12" fill="url(#petal)" transform="rotate(300 32 32)"/><ellipse cx="32" cy="13" rx="6" ry="12" fill="url(#petal)" transform="rotate(330 32 32)"/><circle cx="32" cy="32" r="11" fill="#4a220d"/><circle cx="28.5" cy="28.5" r="2.4" fill="#FF4D8D"/></g></g><g transform="rotate(14 585 287)"><rect x="530" y="210" width="110" height="154" rx="11" fill="url(#brand)" stroke="#fff" stroke-width="3"/><g opacity="0.9" transform="translate(552 254) scale(1.03125)"><ellipse cx="32" cy="13" rx="6" ry="12" fill="url(#petal)" transform="rotate(0 32 32)"/><ellipse cx="32" cy="13" rx="6" ry="12" fill="url(#petal)" transform="rotate(30 32 32)"/><ellipse cx="32" cy="13" rx="6" ry="12" fill="url(#petal)" transform="rotate(60 32 32)"/><ellipse cx="32" cy="13" rx="6" ry="12" fill="url(#petal)" transform="rotate(90 32 32)"/><ellipse cx="32" cy="13" rx="6" ry="12" fill="url(#petal)" transform="rotate(120 32 32)"/><ellipse cx="32" cy="13" rx="6" ry="12" fill="url(#petal)" transform="rotate(150 32 32)"/><ellipse cx="32" cy="13" rx="6" ry="12" fill="url(#petal)" transform="rotate(180 32 32)"/><ellipse cx="32" cy="13" rx="6" ry="12" fill="url(#petal)" transform="rotate(210 32 32)"/><ellipse cx="32" cy="13" rx="6" ry="12" fill="url(#petal)" transform="rotate(240 32 32)"/><ellipse cx="32" cy="13" rx="6" ry="12" fill="url(#petal)" transform="rotate(270 32 32)"/><ellipse cx="32" cy="13" rx="6" ry="12" fill="url(#petal)" transform="rotate(300 32 32)"/><ellipse cx="32" cy="13" rx="6" ry="12" fill="url(#petal)" transform="rotate(330 32 32)"/><circle cx="32" cy="32" r="11" fill="#4a220d"/><circle cx="28.5" cy="28.5" r="2.4" fill="#FF4D8D"/></g></g>
     <circle cx="370" cy="450" r="18" fill="#FFD23F" stroke="#fff" stroke-width="3"/><circle cx="410" cy="450" r="18" fill="#FF4D8D" stroke="#fff" stroke-width="3"/><circle cx="450" cy="450" r="18" fill="#8B5CF6" stroke="#fff" stroke-width="3"/><circle cx="490" cy="450" r="18" fill="#FF8A3D" stroke="#fff" stroke-width="3"/><circle cx="530" cy="450" r="18" fill="#16a34a" stroke="#fff" stroke-width="3"/></svg>
